<svg
  width="16"
  height="15"
  viewBox="0 0 16 15"
  fill="none"
  xmlns="http://www.w3.org/2000/svg"
>
<path
    d="M2.56163 14.5H13.4939C14.3564 14.5 15.0557 13.7355 15.0557 12.7925V5.10864C15.0557 4.1656 14.3564 3.40112 13.4939 3.40112H2.56163C1.69908 3.40112 0.999878 4.1656 0.999878 5.10864V12.7925C0.999878 13.7355 1.69908 14.5 2.56163 14.5Z"
    stroke="black"
    stroke-width="0.5"
  />
<path
    d="M4.51288 9.37714C4.72848 9.37714 4.90332 9.18598 4.90332 8.95026C4.90332 8.71453 4.72848 8.52338 4.51288 8.52338C4.29728 8.52338 4.12244 8.71453 4.12244 8.95026C4.12244 9.18598 4.29728 9.37714 4.51288 9.37714Z"
    stroke="black"
    stroke-width="0.5"
    stroke-linecap="round"
    stroke-linejoin="round"
  />
<path
    d="M3.34251 3.40096V2.20845C3.34251 1.08656 4.31517 0.26952 5.30665 0.558586L13.8963 3.06295C14.58 3.26228 15.0557 3.93922 15.0557 4.71281V5.10848"
    stroke="black"
    stroke-width="0.5"
  />
</svg>
