<svg
  width="30"
  height="30"
  viewBox="0 0 30 30"
  fill="none"
  xmlns="http://www.w3.org/2000/svg"
>
<path
    d="M18.5005 5.76241L26.8767 19.7137C28.0805 21.7174 27.4892 24.3537 25.5555 25.6012C24.9069 26.0223 24.1501 26.2463 23.3767 26.2462H6.62299C4.34674 26.2462 2.50049 24.3337 2.50049 21.9724C2.50049 21.1737 2.71674 20.3924 3.12299 19.7137L11.5005 5.76241C12.703 3.75866 15.2455 3.14491 17.1792 4.39241C17.7142 4.73741 18.1667 5.20616 18.5005 5.76241ZM15.0005 21.2462C15.332 21.2462 15.65 21.1145 15.8844 20.88C16.1188 20.6456 16.2505 20.3277 16.2505 19.9962C16.2505 19.6646 16.1188 19.3467 15.8844 19.1123C15.65 18.8779 15.332 18.7462 15.0005 18.7462C14.669 18.7462 14.351 18.8779 14.1166 19.1123C13.8822 19.3467 13.7505 19.6646 13.7505 19.9962C13.7505 20.3277 13.8822 20.6456 14.1166 20.88C14.351 21.1145 14.669 21.2462 15.0005 21.2462ZM15.0005 9.99616C14.669 9.99616 14.351 10.1279 14.1166 10.3623C13.8822 10.5967 13.7505 10.9146 13.7505 11.2462V16.2462C13.7505 16.5777 13.8822 16.8956 14.1166 17.13C14.351 17.3645 14.669 17.4962 15.0005 17.4962C15.332 17.4962 15.65 17.3645 15.8844 17.13C16.1188 16.8956 16.2505 16.5777 16.2505 16.2462V11.2462C16.2505 10.9146 16.1188 10.5967 15.8844 10.3623C15.65 10.1279 15.332 9.99616 15.0005 9.99616Z"
    fill="#FFA336"
  />
</svg>
